<svg width="75" height="75" viewBox="0 0 75 75" fill="none" xmlns="http://www.w3.org/2000/svg">
<path d="M57.9087 43.2302C57.7515 43.1285 57.599 43.0044 57.4596 42.8647L51.1003 36.5054C50.8097 36.2148 50.4698 35.9971 50.1548 35.8997C49.8397 35.8024 49.575 35.8333 49.4185 35.9857L57.9087 43.2302ZM57.9087 43.2302L58.1801 42.8102C58.1798 42.8101 58.1795 42.8099 58.1792 42.8097C58.1791 42.8096 58.1789 42.8095 58.1787 42.8094L57.9087 43.2302ZM31.1119 15.321C31.1125 15.321 31.113 15.3209 31.1136 15.3209L31.087 14.8216L31.109 15.3211L31.1119 15.321ZM33.0906 14.7334L33.1124 15.2329L33.1126 15.2329L33.0906 14.7334ZM58.6738 14.112C58.6747 14.1119 58.6756 14.1119 58.6765 14.1119L58.6808 14.1117L58.6582 13.6123L58.6738 14.112ZM60.128 15.5657C60.128 15.5665 60.128 15.5672 60.128 15.568L60.6276 15.5867L60.1282 15.5618L60.128 15.5657ZM58.8823 40.9983L58.8822 41L59.3816 41.0244L58.8823 40.9983ZM58.7784 42.9865C58.7784 42.9869 58.7783 42.9873 58.7783 42.9877L58.7782 42.9894L59.2775 43.0155L58.7784 42.9865ZM58.7752 43.0138C58.7738 43.0208 58.7724 43.0252 58.7717 43.0274C58.7716 43.0275 58.7716 43.0276 58.7715 43.0277C58.7712 43.0285 58.7711 43.0289 58.7711 43.0289C58.7711 43.0289 58.7713 43.0285 58.7717 43.0277C58.7725 43.0264 58.7741 43.024 58.7767 43.021C58.7777 43.0199 58.7787 43.0188 58.7798 43.0177C58.7814 43.0161 58.7831 43.0147 58.7847 43.0134C58.7874 43.0113 58.7895 43.0101 58.7902 43.0097C58.7917 43.0089 58.7876 43.0114 58.7752 43.0138ZM31.0727 15.3272C31.0752 15.3264 31.0792 15.3253 31.085 15.3242C31.0874 15.3116 31.0899 15.3075 31.089 15.3092C31.0886 15.3101 31.0874 15.3121 31.0852 15.3149C31.083 15.3176 31.0804 15.3204 31.0775 15.3229C31.0752 15.3249 31.0732 15.3262 31.0719 15.3271C31.0707 15.3279 31.07 15.3282 31.0699 15.3283C31.0698 15.3283 31.0702 15.3281 31.0713 15.3277C31.0717 15.3276 31.0722 15.3274 31.0727 15.3272ZM31.2885 15.9193C31.2883 15.919 31.2881 15.9187 31.288 15.9184C31.2878 15.9181 31.2876 15.9178 31.2874 15.9176L30.8675 16.189L31.2885 15.9193ZM9.62132 54.1443L9.62826 54.1374C9.6287 54.136 9.62909 54.1349 9.62938 54.1342C9.62841 54.136 9.626 54.1397 9.62132 54.1443ZM19.116 64.1024L19.1153 64.1017C19.115 64.1015 19.1148 64.1012 19.1146 64.101L18.7624 64.4559L19.116 64.1024ZM20.0982 64.6015C20.0982 64.6015 20.0969 64.6022 20.0939 64.6031L20.087 64.61C20.0935 64.6035 20.0981 64.6014 20.0982 64.6015Z" fill="#000001" stroke="black"/>
</svg>